<svg xmlns="http://www.w3.org/2000/svg" viewBox="0 0 48 48" id="files-recently"><path d="M40.14 14.45 30.8 4.9a3 3 0 0 0-2.14-.9H14a3 3 0 0 0-3 3v1h-1a3 3 0 0 0-3 3v5a1 1 0 0 0 2 0v-5a1 1 0 0 1 1-1h1v27a3 3 0 0 0 3 3h21v1a1 1 0 0 1-1 1H10a1 1 0 0 1-1-1V20a1 1 0 0 0-2 0v21a3 3 0 0 0 3 3h24a3 3 0 0 0 3-3v-1h1a3 3 0 0 0 3-3V16.55a3 3 0 0 0-.86-2.1ZM31 8l6.88 7H32a1 1 0 0 1-1-1Zm8 29a1 1 0 0 1-1 1H14a1 1 0 0 1-1-1V7a1 1 0 0 1 1-1h14.66a1 1 0 0 1 .34.07V14a3 3 0 0 0 3 3h7ZM26 19a7 7 0 1 0 7 7 7 7 0 0 0-7-7Zm0 12a5 5 0 1 1 5-5 5 5 0 0 1-5 5Zm3-6a1 1 0 0 1 0 2h-3a1 1 0 0 1-1-1v-3a1 1 0 0 1 2 0v2Z" data-name="03 Files Recently"></path></svg>